<svg height="571.0" width="1077.0" xmlns="http://www.w3.org/2000/svg"><desc>{"leftTopX": 6766, "leftTopY": 6681, "rightBottomX": 7843, "rightBottomY": 7212}</desc><g transform="translate(0.5,0.5)"><g class="reference"><polyline fill="none" points="43.0,66.0 373.0,66.0" stroke="#000000" stroke-linejoin="miter"/><g class="cardinality"><line stroke="#000000" stroke-width="1.0" x1="244.0" x2="259.0" y1="66.0" y2="60.0"/><line stroke="#000000" stroke-width="1.0" x1="244.0" x2="259.0" y1="66.0" y2="72.0"/><g transform="translate(244.0,66.0)"><circle fill="white" r="3.5" stroke="#000000" stroke-width="1.0"/></g></g><g class="mandatory"><line stroke="#000000" stroke-width="1.0" x1="205.0" x2="205.0" y1="60.0" y2="72.0"/></g></g><g class="reference"><polyline fill="none" points="348.0,249.0 217.0,249.0 217.0,241.0 127.0,241.0" stroke="#000000" stroke-linejoin="miter"/><g class="cardinality"><line stroke="#000000" stroke-width="1.0" x1="286.0" x2="271.0" y1="249.0" y2="243.0"/><line stroke="#000000" stroke-width="1.0" x1="286.0" x2="271.0" y1="249.0" y2="255.0"/><g transform="translate(286.0,249.0)"><circle fill="white" r="3.5" stroke="#000000" stroke-width="1.0"/></g></g></g><g class="reference"><polyline fill="none" points="134.0,409.0 134.0,256.0" stroke="#000000" stroke-linejoin="miter"/><g class="cardinality"><line stroke="#000000" stroke-width="1.0" x1="134.0" x2="128.0" y1="300.0" y2="285.0"/><line stroke="#000000" stroke-width="1.0" x1="134.0" x2="140.0" y1="300.0" y2="285.0"/><g transform="translate(134.0,300.0)"><circle fill="white" r="3.5" stroke="#000000" stroke-width="1.0"/></g></g><g class="mandatory"><line stroke="#000000" stroke-width="1.0" x1="128.0" x2="140.0" y1="366.0" y2="366.0"/></g></g><g class="reference"><polyline fill="none" points="496.0,411.0 496.0,372.0 688.0,372.0 688.0,290.0" stroke="#000000" stroke-linejoin="miter"/><g class="cardinality"><line stroke="#000000" stroke-width="1.0" x1="688.0" x2="682.0" y1="340.0" y2="325.0"/><line stroke="#000000" stroke-width="1.0" x1="688.0" x2="694.0" y1="340.0" y2="325.0"/><g transform="translate(688.0,340.0)"><circle fill="white" r="3.5" stroke="#000000" stroke-width="1.0"/></g></g><g class="mandatory"><line stroke="#000000" stroke-width="1.0" x1="490.0" x2="502.0" y1="376.0" y2="376.0"/></g></g><g class="reference"><polyline fill="none" points="740.0,125.0 502.0,125.0 502.0,288.0" stroke="#000000" stroke-linejoin="miter"/><g class="cardinality"><line stroke="#000000" stroke-width="1.0" x1="502.0" x2="496.0" y1="233.0" y2="248.0"/><line stroke="#000000" stroke-width="1.0" x1="502.0" x2="508.0" y1="233.0" y2="248.0"/><g transform="translate(502.0,233.0)"><circle fill="white" r="3.5" stroke="#000000" stroke-width="1.0"/></g></g><g class="mandatory"><line stroke="#000000" stroke-width="1.0" x1="678.0" x2="678.0" y1="119.0" y2="131.0"/></g></g><g class="reference"><polyline fill="none" points="357.0,114.0 357.0,288.0" stroke="#000000" stroke-linejoin="miter"/><g class="cardinality"><line stroke="#000000" stroke-width="1.0" x1="357.0" x2="351.0" y1="233.0" y2="248.0"/><line stroke="#000000" stroke-width="1.0" x1="357.0" x2="363.0" y1="233.0" y2="248.0"/><g transform="translate(357.0,233.0)"><circle fill="white" r="3.5" stroke="#000000" stroke-width="1.0"/></g></g><g class="mandatory"><line stroke="#000000" stroke-width="1.0" x1="351.0" x2="363.0" y1="177.0" y2="177.0"/></g></g><g class="reference"><polyline fill="none" points="498.0,309.0 676.0,309.0" stroke="#000000" stroke-linejoin="miter"/><g class="cardinality"><line stroke="#000000" stroke-width="1.0" x1="584.0" x2="599.0" y1="309.0" y2="303.0"/><line stroke="#000000" stroke-width="1.0" x1="584.0" x2="599.0" y1="309.0" y2="315.0"/><g transform="translate(584.0,309.0)"><circle fill="white" r="3.5" stroke="#000000" stroke-width="1.0"/></g></g><g class="mandatory"><line stroke="#000000" stroke-width="1.0" x1="527.0" x2="527.0" y1="303.0" y2="315.0"/></g></g><g class="reference"><polyline fill="none" points="707.0,275.0 850.0,275.0" stroke="#000000" stroke-linejoin="miter"/><g class="cardinality"><line stroke="#000000" stroke-width="1.0" x1="809.0" x2="824.0" y1="275.0" y2="269.0"/><line stroke="#000000" stroke-width="1.0" x1="809.0" x2="824.0" y1="275.0" y2="281.0"/><g transform="translate(809.0,275.0)"><circle fill="white" r="3.5" stroke="#000000" stroke-width="1.0"/></g></g><g class="mandatory"><line stroke="#000000" stroke-width="1.0" x1="772.0" x2="772.0" y1="269.0" y2="281.0"/></g></g><g class="reference"><polyline fill="none" points="835.0,155.0 835.0,229.0 903.0,229.0" stroke="#000000" stroke-linejoin="miter"/><g class="cardinality"><line stroke="#000000" stroke-width="1.0" x1="835.0" x2="829.0" y1="199.0" y2="214.0"/><line stroke="#000000" stroke-width="1.0" x1="835.0" x2="841.0" y1="199.0" y2="214.0"/><g transform="translate(835.0,199.0)"><circle fill="white" r="3.5" stroke="#000000" stroke-width="1.0"/></g></g><g class="mandatory"><line stroke="#000000" stroke-width="1.0" x1="829.0" x2="841.0" y1="180.0" y2="180.0"/></g></g><g class="table" transform="translate(693.0,20.0)"><g transform="translate(0.0,0.0)"><rect fill="#f0f0f0" height="20.0" width="186.0"/></g><g transform="translate(0.0,0.0)"><text fill="black" font-family="arial, sans-serif" font-size="12" font-weight="700" text-anchor="middle" x="94.0" y="14.1396484375">Patient</text></g><g transform="translate(0.0,20.0)"><rect fill="#ffffff" height="125.0" width="186.0"/><g transform="translate(4.0,3.0)"><g transform="translate(0.0,0.0)"><text fill="black" font-family="arial, sans-serif" font-size="12" font-weight="400" x="1.0" y="10.86328125">PatientID</text></g><g transform="translate(0.0,14.0)"><text fill="black" font-family="arial, sans-serif" font-size="12" font-weight="400" x="1.0" y="10.86328125">FirstName</text></g><g transform="translate(0.0,28.0)"><text fill="black" font-family="arial, sans-serif" font-size="12" font-weight="400" x="1.0" y="10.86328125">LastName</text></g><g transform="translate(0.0,42.0)"><text fill="black" font-family="arial, sans-serif" font-size="12" font-weight="400" x="1.0" y="10.86328125">Gender</text></g><g transform="translate(0.0,56.0)"><text fill="black" font-family="arial, sans-serif" font-size="12" font-weight="400" x="1.0" y="10.86328125">Age</text></g><g transform="translate(0.0,70.0)"><text fill="black" font-family="arial, sans-serif" font-size="12" font-weight="400" x="1.0" y="10.86328125">Address</text></g><g transform="translate(0.0,84.0)"><text fill="black" font-family="arial, sans-serif" font-size="12" font-weight="400" x="1.0" y="10.86328125">Email</text></g><g transform="translate(0.0,98.0)"><text fill="black" font-family="arial, sans-serif" font-size="12" font-weight="400" x="1.0" y="10.86328125">PhoneNumber</text></g></g><g transform="translate(93.5,3.0)"><g transform="translate(0.0,0.0)"><text fill="black" font-family="arial, sans-serif" font-size="12" font-weight="400" x="1.0" y="10.86328125">int</text></g><g transform="translate(0.0,14.0)"><text fill="black" font-family="arial, sans-serif" font-size="12" font-weight="400" x="1.0" y="10.86328125">varchar(32)</text></g><g transform="translate(0.0,28.0)"><text fill="black" font-family="arial, sans-serif" font-size="12" font-weight="400" x="1.0" y="10.86328125">varchar(32)</text></g><g transform="translate(0.0,42.0)"><text fill="black" font-family="arial, sans-serif" font-size="12" font-weight="400" x="1.0" y="10.86328125">varchar(20)</text></g><g transform="translate(0.0,56.0)"><text fill="black" font-family="arial, sans-serif" font-size="12" font-weight="400" x="1.0" y="10.86328125">int</text></g><g transform="translate(0.0,70.0)"><text fill="black" font-family="arial, sans-serif" font-size="12" font-weight="400" x="1.0" y="10.86328125">varchar(100)</text></g><g transform="translate(0.0,84.0)"><text fill="black" font-family="arial, sans-serif" font-size="12" font-weight="400" x="1.0" y="10.86328125">varchar(100)</text></g><g transform="translate(0.0,98.0)"><text fill="black" font-family="arial, sans-serif" font-size="12" font-weight="400" x="1.0" y="10.86328125">varchar(20)</text></g></g><g transform="translate(165.75,3.0)"><g transform="translate(0.0,0.0)"><text fill="black" font-family="arial, sans-serif" font-size="12" font-weight="400" x="1.0" y="10.86328125">PK</text></g><g transform="translate(0.0,14.0)"><text fill="black" font-family="arial, sans-serif" font-size="12" font-weight="400" x="1.0" y="10.86328125"/></g><g transform="translate(0.0,28.0)"><text fill="black" font-family="arial, sans-serif" font-size="12" font-weight="400" x="1.0" y="10.86328125"/></g><g transform="translate(0.0,42.0)"><text fill="black" font-family="arial, sans-serif" font-size="12" font-weight="400" x="1.0" y="10.86328125"/></g><g transform="translate(0.0,56.0)"><text fill="black" font-family="arial, sans-serif" font-size="12" font-weight="400" x="1.0" y="10.86328125"/></g><g transform="translate(0.0,70.0)"><text fill="black" font-family="arial, sans-serif" font-size="12" font-weight="400" x="1.0" y="10.86328125"/></g><g transform="translate(0.0,84.0)"><text fill="black" font-family="arial, sans-serif" font-size="12" font-weight="400" x="1.0" y="10.86328125"/></g><g transform="translate(0.0,98.0)"><text fill="black" font-family="arial, sans-serif" font-size="12" font-weight="400" x="1.0" y="10.86328125"/></g></g></g><polyline fill="none" points="0.0,20.0 0.0,0.0 186.0,0.0 186.0,20.0 0.0,20.0 0.0,145.0 186.0,145.0 186.0,20.0" stroke="#000000" stroke-linejoin="miter"/></g><g class="table" transform="translate(259.0,32.0)"><g transform="translate(0.0,0.0)"><rect fill="#f0f0f0" height="20.0" width="231.0"/></g><g transform="translate(0.0,0.0)"><text fill="black" font-family="arial, sans-serif" font-size="12" font-weight="700" text-anchor="middle" x="116.5" y="14.1396484375">Doctor</text></g><g transform="translate(0.0,20.0)"><rect fill="#ffffff" height="110.0" width="231.0"/><g transform="translate(4.0,3.0)"><g transform="translate(0.0,0.0)"><text fill="black" font-family="arial, sans-serif" font-size="12" font-weight="400" x="1.0" y="10.86328125">DoctorID</text></g><g transform="translate(0.0,14.0)"><text fill="black" font-family="arial, sans-serif" font-size="12" font-weight="400" x="1.0" y="10.86328125">FirstName</text></g><g transform="translate(0.0,28.0)"><text fill="black" font-family="arial, sans-serif" font-size="12" font-weight="400" x="1.0" y="10.86328125">LastName</text></g><g transform="translate(0.0,42.0)"><text fill="black" font-family="arial, sans-serif" font-size="12" font-weight="400" x="1.0" y="10.86328125">Gender</text></g><g transform="translate(0.0,56.0)"><text fill="black" font-family="arial, sans-serif" font-size="12" font-weight="400" x="1.0" y="10.86328125">DoctorType</text></g><g transform="translate(0.0,70.0)"><text fill="black" font-family="arial, sans-serif" font-size="12" font-weight="400" x="1.0" y="10.86328125">Active</text></g></g><g transform="translate(145.25,3.0)"><g transform="translate(0.0,0.0)"><text fill="black" font-family="arial, sans-serif" font-size="12" font-weight="400" x="1.0" y="10.86328125">int</text></g><g transform="translate(0.0,14.0)"><text fill="black" font-family="arial, sans-serif" font-size="12" font-weight="400" x="1.0" y="10.86328125">varchar(32)</text></g><g transform="translate(0.0,28.0)"><text fill="black" font-family="arial, sans-serif" font-size="12" font-weight="400" x="1.0" y="10.86328125">varchar(32)</text></g><g transform="translate(0.0,42.0)"><text fill="black" font-family="arial, sans-serif" font-size="12" font-weight="400" x="1.0" y="10.86328125">varchar(20)</text></g><g transform="translate(0.0,56.0)"><text fill="black" font-family="arial, sans-serif" font-size="12" font-weight="400" x="1.0" y="10.86328125">int</text></g><g transform="translate(0.0,70.0)"><text fill="black" font-family="arial, sans-serif" font-size="12" font-weight="400" x="1.0" y="10.86328125">bool</text></g></g><g transform="translate(210.75,3.0)"><g transform="translate(0.0,0.0)"><text fill="black" font-family="arial, sans-serif" font-size="12" font-weight="400" x="1.0" y="10.86328125">PK</text></g><g transform="translate(0.0,14.0)"><text fill="black" font-family="arial, sans-serif" font-size="12" font-weight="400" x="1.0" y="10.86328125"/></g><g transform="translate(0.0,28.0)"><text fill="black" font-family="arial, sans-serif" font-size="12" font-weight="400" x="1.0" y="10.86328125"/></g><g transform="translate(0.0,42.0)"><text fill="black" font-family="arial, sans-serif" font-size="12" font-weight="400" x="1.0" y="10.86328125"/></g><g transform="translate(0.0,56.0)"><text fill="black" font-family="arial, sans-serif" font-size="12" font-weight="400" x="1.0" y="10.86328125">FK</text></g><g transform="translate(0.0,70.0)"><text fill="black" font-family="arial, sans-serif" font-size="12" font-weight="400" x="1.0" y="10.86328125"/></g></g></g><polyline fill="none" points="0.0,20.0 0.0,0.0 231.0,0.0 231.0,20.0 0.0,20.0 0.0,130.0 231.0,130.0 231.0,20.0" stroke="#000000" stroke-linejoin="miter"/></g><g class="table" transform="translate(20.0,35.0)"><g transform="translate(0.0,0.0)"><rect fill="#f0f0f0" height="20.0" width="170.0"/></g><g transform="translate(0.0,0.0)"><text fill="black" font-family="arial, sans-serif" font-size="12" font-weight="700" text-anchor="middle" x="86.0" y="14.1396484375">DoctorType</text></g><g transform="translate(0.0,20.0)"><rect fill="#ffffff" height="40.0" width="170.0"/><g transform="translate(4.0,3.0)"><g transform="translate(0.0,0.0)"><text fill="black" font-family="arial, sans-serif" font-size="12" font-weight="400" x="1.0" y="10.86328125">DoctorType</text></g><g transform="translate(0.0,14.0)"><text fill="black" font-family="arial, sans-serif" font-size="12" font-weight="400" x="1.0" y="10.86328125">Description</text></g></g><g transform="translate(77.5,3.0)"><g transform="translate(0.0,0.0)"><text fill="black" font-family="arial, sans-serif" font-size="12" font-weight="400" x="1.0" y="10.86328125">int</text></g><g transform="translate(0.0,14.0)"><text fill="black" font-family="arial, sans-serif" font-size="12" font-weight="400" x="1.0" y="10.86328125">varchar(100)</text></g></g><g transform="translate(149.75,3.0)"><g transform="translate(0.0,0.0)"><text fill="black" font-family="arial, sans-serif" font-size="12" font-weight="400" x="1.0" y="10.86328125">PK</text></g><g transform="translate(0.0,14.0)"><text fill="black" font-family="arial, sans-serif" font-size="12" font-weight="400" x="1.0" y="10.86328125"/></g></g></g><polyline fill="none" points="0.0,20.0 0.0,0.0 170.0,0.0 170.0,20.0 0.0,20.0 0.0,60.0 170.0,60.0 170.0,20.0" stroke="#000000" stroke-linejoin="miter"/></g><g class="table" transform="translate(27.0,381.0)"><g transform="translate(0.0,0.0)"><rect fill="#f0f0f0" height="20.0" width="227.0"/></g><g transform="translate(0.0,0.0)"><text fill="black" font-family="arial, sans-serif" font-size="12" font-weight="700" text-anchor="middle" x="114.5" y="14.1396484375">MedicineStock</text></g><g transform="translate(0.0,20.0)"><rect fill="#ffffff" height="110.0" width="227.0"/><g transform="translate(4.0,3.0)"><g transform="translate(0.0,0.0)"><text fill="black" font-family="arial, sans-serif" font-size="12" font-weight="400" x="1.0" y="10.86328125">MedicineID</text></g><g transform="translate(0.0,14.0)"><text fill="black" font-family="arial, sans-serif" font-size="12" font-weight="400" x="1.0" y="10.86328125">MedicineName</text></g><g transform="translate(0.0,28.0)"><text fill="black" font-family="arial, sans-serif" font-size="12" font-weight="400" x="1.0" y="10.86328125">BatchNumber</text></g><g transform="translate(0.0,42.0)"><text fill="black" font-family="arial, sans-serif" font-size="12" font-weight="400" x="1.0" y="10.86328125">MedicineManufacturer</text></g><g transform="translate(0.0,56.0)"><text fill="black" font-family="arial, sans-serif" font-size="12" font-weight="400" x="1.0" y="10.86328125">StockQty</text></g><g transform="translate(0.0,70.0)"><text fill="black" font-family="arial, sans-serif" font-size="12" font-weight="400" x="1.0" y="10.86328125">Price</text></g><g transform="translate(0.0,84.0)"><text fill="black" font-family="arial, sans-serif" font-size="12" font-weight="400" x="1.0" y="10.86328125">ExpiryDate</text></g></g><g transform="translate(134.5,3.0)"><g transform="translate(0.0,0.0)"><text fill="black" font-family="arial, sans-serif" font-size="12" font-weight="400" x="1.0" y="10.86328125">int</text></g><g transform="translate(0.0,14.0)"><text fill="black" font-family="arial, sans-serif" font-size="12" font-weight="400" x="1.0" y="10.86328125">varchar(100)</text></g><g transform="translate(0.0,28.0)"><text fill="black" font-family="arial, sans-serif" font-size="12" font-weight="400" x="1.0" y="10.86328125">int</text></g><g transform="translate(0.0,42.0)"><text fill="black" font-family="arial, sans-serif" font-size="12" font-weight="400" x="1.0" y="10.86328125">varchar(100)</text></g><g transform="translate(0.0,56.0)"><text fill="black" font-family="arial, sans-serif" font-size="12" font-weight="400" x="1.0" y="10.86328125">int</text></g><g transform="translate(0.0,70.0)"><text fill="black" font-family="arial, sans-serif" font-size="12" font-weight="400" x="1.0" y="10.86328125">int</text></g><g transform="translate(0.0,84.0)"><text fill="black" font-family="arial, sans-serif" font-size="12" font-weight="400" x="1.0" y="10.86328125">timestamp</text></g></g><g transform="translate(206.75,3.0)"><g transform="translate(0.0,0.0)"><text fill="black" font-family="arial, sans-serif" font-size="12" font-weight="400" x="1.0" y="10.86328125">PK</text></g><g transform="translate(0.0,14.0)"><text fill="black" font-family="arial, sans-serif" font-size="12" font-weight="400" x="1.0" y="10.86328125"/></g><g transform="translate(0.0,28.0)"><text fill="black" font-family="arial, sans-serif" font-size="12" font-weight="400" x="1.0" y="10.86328125"/></g><g transform="translate(0.0,42.0)"><text fill="black" font-family="arial, sans-serif" font-size="12" font-weight="400" x="1.0" y="10.86328125"/></g><g transform="translate(0.0,56.0)"><text fill="black" font-family="arial, sans-serif" font-size="12" font-weight="400" x="1.0" y="10.86328125"/></g><g transform="translate(0.0,70.0)"><text fill="black" font-family="arial, sans-serif" font-size="12" font-weight="400" x="1.0" y="10.86328125"/></g><g transform="translate(0.0,84.0)"><text fill="black" font-family="arial, sans-serif" font-size="12" font-weight="400" x="1.0" y="10.86328125"/></g></g></g><polyline fill="none" points="0.0,20.0 0.0,0.0 227.0,0.0 227.0,20.0 0.0,20.0 0.0,130.0 227.0,130.0 227.0,20.0" stroke="#000000" stroke-linejoin="miter"/></g><g class="table" transform="translate(323.0,248.0)"><g transform="translate(0.0,0.0)"><rect fill="#f0f0f0" height="20.0" width="189.0"/></g><g transform="translate(0.0,0.0)"><text fill="black" font-family="arial, sans-serif" font-size="12" font-weight="700" text-anchor="middle" x="95.5" y="14.1396484375">DoctorPrescription</text></g><g transform="translate(0.0,20.0)"><rect fill="#ffffff" height="82.0" width="189.0"/><g transform="translate(4.0,3.0)"><g transform="translate(0.0,0.0)"><text fill="black" font-family="arial, sans-serif" font-size="12" font-weight="400" x="1.0" y="10.86328125">PrescriptionID</text></g><g transform="translate(0.0,14.0)"><text fill="black" font-family="arial, sans-serif" font-size="12" font-weight="400" x="1.0" y="10.86328125">PatientID</text></g><g transform="translate(0.0,28.0)"><text fill="black" font-family="arial, sans-serif" font-size="12" font-weight="400" x="1.0" y="10.86328125">DoctorID</text></g><g transform="translate(0.0,42.0)"><text fill="black" font-family="arial, sans-serif" font-size="12" font-weight="400" x="1.0" y="10.86328125">PrescriptionDate</text></g></g><g transform="translate(109.25,3.0)"><g transform="translate(0.0,0.0)"><text fill="black" font-family="arial, sans-serif" font-size="12" font-weight="400" x="1.0" y="10.86328125">int</text></g><g transform="translate(0.0,14.0)"><text fill="black" font-family="arial, sans-serif" font-size="12" font-weight="400" x="1.0" y="10.86328125">int</text></g><g transform="translate(0.0,28.0)"><text fill="black" font-family="arial, sans-serif" font-size="12" font-weight="400" x="1.0" y="10.86328125">int</text></g><g transform="translate(0.0,42.0)"><text fill="black" font-family="arial, sans-serif" font-size="12" font-weight="400" x="1.0" y="10.86328125">timestamp</text></g></g><g transform="translate(168.75,3.0)"><g transform="translate(0.0,0.0)"><text fill="black" font-family="arial, sans-serif" font-size="12" font-weight="400" x="1.0" y="10.86328125">PK</text></g><g transform="translate(0.0,14.0)"><text fill="black" font-family="arial, sans-serif" font-size="12" font-weight="400" x="1.0" y="10.86328125">FK</text></g><g transform="translate(0.0,28.0)"><text fill="black" font-family="arial, sans-serif" font-size="12" font-weight="400" x="1.0" y="10.86328125">FK</text></g><g transform="translate(0.0,42.0)"><text fill="black" font-family="arial, sans-serif" font-size="12" font-weight="400" x="1.0" y="10.86328125"/></g></g></g><polyline fill="none" points="0.0,20.0 0.0,0.0 189.0,0.0 189.0,20.0 0.0,20.0 0.0,102.0 189.0,102.0 189.0,20.0" stroke="#000000" stroke-linejoin="miter"/></g><g class="table" transform="translate(37.0,183.0)"><g transform="translate(0.0,0.0)"><rect fill="#f0f0f0" height="20.0" width="234.0"/></g><g transform="translate(0.0,0.0)"><text fill="black" font-family="arial, sans-serif" font-size="12" font-weight="700" text-anchor="middle" x="118.0" y="14.1396484375">PrescriptionDetails</text></g><g transform="translate(0.0,20.0)"><rect fill="#ffffff" height="82.0" width="234.0"/><g transform="translate(4.0,3.0)"><g transform="translate(0.0,0.0)"><text fill="black" font-family="arial, sans-serif" font-size="12" font-weight="400" x="1.0" y="10.86328125">ID</text></g><g transform="translate(0.0,14.0)"><text fill="black" font-family="arial, sans-serif" font-size="12" font-weight="400" x="1.0" y="10.86328125">PrescriptionID</text></g><g transform="translate(0.0,28.0)"><text fill="black" font-family="arial, sans-serif" font-size="12" font-weight="400" x="1.0" y="10.86328125">MedicineID</text></g><g transform="translate(0.0,42.0)"><text fill="black" font-family="arial, sans-serif" font-size="12" font-weight="400" x="1.0" y="10.86328125">Quantity</text></g></g><g transform="translate(197.0,3.0)"><g transform="translate(0.0,0.0)"><text fill="black" font-family="arial, sans-serif" font-size="12" font-weight="400" x="1.0" y="10.86328125">int</text></g><g transform="translate(0.0,14.0)"><text fill="black" font-family="arial, sans-serif" font-size="12" font-weight="400" x="1.0" y="10.86328125">int</text></g><g transform="translate(0.0,28.0)"><text fill="black" font-family="arial, sans-serif" font-size="12" font-weight="400" x="1.0" y="10.86328125">int</text></g><g transform="translate(0.0,42.0)"><text fill="black" font-family="arial, sans-serif" font-size="12" font-weight="400" x="1.0" y="10.86328125">int</text></g></g><g transform="translate(213.75,3.0)"><g transform="translate(0.0,0.0)"><text fill="black" font-family="arial, sans-serif" font-size="12" font-weight="400" x="1.0" y="10.86328125">PK</text></g><g transform="translate(0.0,14.0)"><text fill="black" font-family="arial, sans-serif" font-size="12" font-weight="400" x="1.0" y="10.86328125">FK</text></g><g transform="translate(0.0,28.0)"><text fill="black" font-family="arial, sans-serif" font-size="12" font-weight="400" x="1.0" y="10.86328125">FK</text></g><g transform="translate(0.0,42.0)"><text fill="black" font-family="arial, sans-serif" font-size="12" font-weight="400" x="1.0" y="10.86328125"/></g></g></g><polyline fill="none" points="0.0,20.0 0.0,0.0 234.0,0.0 234.0,20.0 0.0,20.0 0.0,102.0 234.0,102.0 234.0,20.0" stroke="#000000" stroke-linejoin="miter"/></g><g class="table" transform="translate(599.0,222.0)"><g transform="translate(0.0,0.0)"><rect fill="#f0f0f0" height="20.0" width="158.0"/></g><g transform="translate(0.0,0.0)"><text fill="black" font-family="arial, sans-serif" font-size="12" font-weight="700" text-anchor="middle" x="80.0" y="14.1396484375">OrderSummary</text></g><g transform="translate(0.0,20.0)"><rect fill="#ffffff" height="83.0" width="158.0"/><g transform="translate(4.0,3.0)"><g transform="translate(0.0,0.0)"><text fill="black" font-family="arial, sans-serif" font-size="12" font-weight="400" x="1.0" y="10.86328125">OrderID</text></g><g transform="translate(0.0,14.0)"><text fill="black" font-family="arial, sans-serif" font-size="12" font-weight="400" x="1.0" y="10.86328125">PrescriptionI</text></g><g transform="translate(0.0,28.0)"><text fill="black" font-family="arial, sans-serif" font-size="12" font-weight="400" x="1.0" y="10.86328125">OrderDate</text></g><g transform="translate(0.0,42.0)"><text fill="black" font-family="arial, sans-serif" font-size="12" font-weight="400" x="1.0" y="10.86328125">MedicalStaffI</text></g></g><g transform="translate(78.25,3.0)"><g transform="translate(0.0,0.0)"><text fill="black" font-family="arial, sans-serif" font-size="12" font-weight="400" x="1.0" y="10.86328125">int</text></g><g transform="translate(0.0,14.0)"><text fill="black" font-family="arial, sans-serif" font-size="12" font-weight="400" x="1.0" y="10.86328125">int</text></g><g transform="translate(0.0,28.0)"><text fill="black" font-family="arial, sans-serif" font-size="12" font-weight="400" x="1.0" y="10.86328125">timestamp</text></g><g transform="translate(0.0,42.0)"><text fill="black" font-family="arial, sans-serif" font-size="12" font-weight="400" x="1.0" y="10.86328125">int</text></g></g><g transform="translate(137.75,3.0)"><g transform="translate(0.0,0.0)"><text fill="black" font-family="arial, sans-serif" font-size="12" font-weight="400" x="1.0" y="10.86328125">PK</text></g><g transform="translate(0.0,14.0)"><text fill="black" font-family="arial, sans-serif" font-size="12" font-weight="400" x="1.0" y="10.86328125">FK</text></g><g transform="translate(0.0,28.0)"><text fill="black" font-family="arial, sans-serif" font-size="12" font-weight="400" x="1.0" y="10.86328125"/></g><g transform="translate(0.0,42.0)"><text fill="black" font-family="arial, sans-serif" font-size="12" font-weight="400" x="1.0" y="10.86328125">FK</text></g></g></g><polyline fill="none" points="0.0,20.0 0.0,0.0 158.0,0.0 158.0,20.0 0.0,20.0 0.0,103.0 158.0,103.0 158.0,20.0" stroke="#000000" stroke-linejoin="miter"/></g><g class="table" transform="translate(320.0,391.0)"><g transform="translate(0.0,0.0)"><rect fill="#f0f0f0" height="20.0" width="186.0"/></g><g transform="translate(0.0,0.0)"><text fill="black" font-family="arial, sans-serif" font-size="12" font-weight="700" text-anchor="middle" x="94.0" y="14.1396484375">MedicalStaffEmployee</text></g><g transform="translate(0.0,20.0)"><rect fill="#ffffff" height="96.0" width="186.0"/><g transform="translate(4.0,3.0)"><g transform="translate(0.0,0.0)"><text fill="black" font-family="arial, sans-serif" font-size="12" font-weight="400" x="1.0" y="10.86328125">MedicalStaffID</text></g><g transform="translate(0.0,14.0)"><text fill="black" font-family="arial, sans-serif" font-size="12" font-weight="400" x="1.0" y="10.86328125">FirstName</text></g><g transform="translate(0.0,28.0)"><text fill="black" font-family="arial, sans-serif" font-size="12" font-weight="400" x="1.0" y="10.86328125">LastName</text></g><g transform="translate(0.0,42.0)"><text fill="black" font-family="arial, sans-serif" font-size="12" font-weight="400" x="1.0" y="10.86328125">Location</text></g><g transform="translate(0.0,56.0)"><text fill="black" font-family="arial, sans-serif" font-size="12" font-weight="400" x="1.0" y="10.86328125">HiringDate</text></g><g transform="translate(0.0,70.0)"><text fill="black" font-family="arial, sans-serif" font-size="12" font-weight="400" x="1.0" y="10.86328125">Role</text></g></g><g transform="translate(93.5,3.0)"><g transform="translate(0.0,0.0)"><text fill="black" font-family="arial, sans-serif" font-size="12" font-weight="400" x="1.0" y="10.86328125">int</text></g><g transform="translate(0.0,14.0)"><text fill="black" font-family="arial, sans-serif" font-size="12" font-weight="400" x="1.0" y="10.86328125">varchar(32)</text></g><g transform="translate(0.0,28.0)"><text fill="black" font-family="arial, sans-serif" font-size="12" font-weight="400" x="1.0" y="10.86328125">varchar(32)</text></g><g transform="translate(0.0,42.0)"><text fill="black" font-family="arial, sans-serif" font-size="12" font-weight="400" x="1.0" y="10.86328125">varchar(100)</text></g><g transform="translate(0.0,56.0)"><text fill="black" font-family="arial, sans-serif" font-size="12" font-weight="400" x="1.0" y="10.86328125">timestamp</text></g><g transform="translate(0.0,70.0)"><text fill="black" font-family="arial, sans-serif" font-size="12" font-weight="400" x="1.0" y="10.86328125">varchar(32)</text></g></g><g transform="translate(165.75,3.0)"><g transform="translate(0.0,0.0)"><text fill="black" font-family="arial, sans-serif" font-size="12" font-weight="400" x="1.0" y="10.86328125">PK</text></g><g transform="translate(0.0,14.0)"><text fill="black" font-family="arial, sans-serif" font-size="12" font-weight="400" x="1.0" y="10.86328125"/></g><g transform="translate(0.0,28.0)"><text fill="black" font-family="arial, sans-serif" font-size="12" font-weight="400" x="1.0" y="10.86328125"/></g><g transform="translate(0.0,42.0)"><text fill="black" font-family="arial, sans-serif" font-size="12" font-weight="400" x="1.0" y="10.86328125"/></g><g transform="translate(0.0,56.0)"><text fill="black" font-family="arial, sans-serif" font-size="12" font-weight="400" x="1.0" y="10.86328125"/></g><g transform="translate(0.0,70.0)"><text fill="black" font-family="arial, sans-serif" font-size="12" font-weight="400" x="1.0" y="10.86328125"/></g></g></g><polyline fill="none" points="0.0,20.0 0.0,0.0 186.0,0.0 186.0,20.0 0.0,20.0 0.0,116.0 186.0,116.0 186.0,20.0" stroke="#000000" stroke-linejoin="miter"/></g><g class="table" transform="translate(824.0,214.0)"><g transform="translate(0.0,0.0)"><rect fill="#f0f0f0" height="20.0" width="233.0"/></g><g transform="translate(0.0,0.0)"><text fill="black" font-family="arial, sans-serif" font-size="12" font-weight="700" text-anchor="middle" x="117.5" y="14.1396484375">BillSummary</text></g><g transform="translate(0.0,20.0)"><rect fill="#ffffff" height="125.0" width="233.0"/><g transform="translate(4.0,3.0)"><g transform="translate(0.0,0.0)"><text fill="black" font-family="arial, sans-serif" font-size="12" font-weight="400" x="1.0" y="10.86328125">BillID</text></g><g transform="translate(0.0,14.0)"><text fill="black" font-family="arial, sans-serif" font-size="12" font-weight="400" x="1.0" y="10.86328125">OrderID</text></g><g transform="translate(0.0,28.0)"><text fill="black" font-family="arial, sans-serif" font-size="12" font-weight="400" x="1.0" y="10.86328125">TotalAmount</text></g><g transform="translate(0.0,42.0)"><text fill="black" font-family="arial, sans-serif" font-size="12" font-weight="400" x="1.0" y="10.86328125">BillDate</text></g><g transform="translate(0.0,56.0)"><text fill="black" font-family="arial, sans-serif" font-size="12" font-weight="400" x="1.0" y="10.86328125">PatientID</text></g><g transform="translate(0.0,70.0)"><text fill="black" font-family="arial, sans-serif" font-size="12" font-weight="400" x="1.0" y="10.86328125">PaymentType</text></g><g transform="translate(0.0,84.0)"><text fill="black" font-family="arial, sans-serif" font-size="12" font-weight="400" x="1.0" y="10.86328125">TotalPaid</text></g></g><g transform="translate(147.25,3.0)"><g transform="translate(0.0,0.0)"><text fill="black" font-family="arial, sans-serif" font-size="12" font-weight="400" x="1.0" y="10.86328125">int</text></g><g transform="translate(0.0,14.0)"><text fill="black" font-family="arial, sans-serif" font-size="12" font-weight="400" x="1.0" y="10.86328125">int</text></g><g transform="translate(0.0,28.0)"><text fill="black" font-family="arial, sans-serif" font-size="12" font-weight="400" x="1.0" y="10.86328125">int</text></g><g transform="translate(0.0,42.0)"><text fill="black" font-family="arial, sans-serif" font-size="12" font-weight="400" x="1.0" y="10.86328125">timestamp</text></g><g transform="translate(0.0,56.0)"><text fill="black" font-family="arial, sans-serif" font-size="12" font-weight="400" x="1.0" y="10.86328125">int</text></g><g transform="translate(0.0,70.0)"><text fill="black" font-family="arial, sans-serif" font-size="12" font-weight="400" x="1.0" y="10.86328125">varchar(32)</text></g><g transform="translate(0.0,84.0)"><text fill="black" font-family="arial, sans-serif" font-size="12" font-weight="400" x="1.0" y="10.86328125">bool</text></g></g><g transform="translate(212.75,3.0)"><g transform="translate(0.0,0.0)"><text fill="black" font-family="arial, sans-serif" font-size="12" font-weight="400" x="1.0" y="10.86328125">PK</text></g><g transform="translate(0.0,14.0)"><text fill="black" font-family="arial, sans-serif" font-size="12" font-weight="400" x="1.0" y="10.86328125">FK</text></g><g transform="translate(0.0,28.0)"><text fill="black" font-family="arial, sans-serif" font-size="12" font-weight="400" x="1.0" y="10.86328125"/></g><g transform="translate(0.0,42.0)"><text fill="black" font-family="arial, sans-serif" font-size="12" font-weight="400" x="1.0" y="10.86328125"/></g><g transform="translate(0.0,56.0)"><text fill="black" font-family="arial, sans-serif" font-size="12" font-weight="400" x="1.0" y="10.86328125">FK</text></g><g transform="translate(0.0,70.0)"><text fill="black" font-family="arial, sans-serif" font-size="12" font-weight="400" x="1.0" y="10.86328125"/></g><g transform="translate(0.0,84.0)"><text fill="black" font-family="arial, sans-serif" font-size="12" font-weight="400" x="1.0" y="10.86328125"/></g></g></g><polyline fill="none" points="0.0,20.0 0.0,0.0 233.0,0.0 233.0,20.0 0.0,20.0 0.0,145.0 233.0,145.0 233.0,20.0" stroke="#000000" stroke-linejoin="miter"/></g><g transform="translate(901.0,521.0)"><svg height="40" width="166"><svg xmlns:xlink="http://www.w3.org/1999/xlink" enable-background="new 0 0 487.7 116.5" id="Layer_1" version="1.0" viewBox="0 0 487.7 116.5" x="0px" xml:space="preserve" y="0px">
<g>
	<path d="M146.3,28.6c2.2-0.3,4.5-0.5,6.7-0.5c1.9,0,4,0.2,6.1,0.5l3.8,47l20.6-47c2-0.3,4.1-0.5,6.3-0.5   c2.2,0,4.3,0.2,6.4,0.5l-28.4,59.8c-2.5,0.3-4.9,0.5-7.3,0.5c-1.1,0-2.2,0-3.2-0.1c-1.1-0.1-2.2-0.2-3.5-0.4L146.3,28.6z" fill="#222323"/>
	<path d="M198.6,72.1c0.3,2.7,1.2,4.6,2.7,5.9c1.4,1.3,3.5,2,6.3,2c2.2,0,4.2-0.2,5.9-0.7c1.7-0.5,3.5-1.1,5.4-1.9   c0.9,1.1,1.5,2.5,1.8,4c0.3,1.6,0.5,3.3,0.5,5c-0.9,0.4-2,0.8-3.3,1.2c-1.2,0.4-2.5,0.7-3.9,0.9c-1.3,0.2-2.7,0.4-4,0.6   c-1.3,0.1-2.5,0.2-3.6,0.2c-3.4,0-6.3-0.4-8.7-1.2c-2.4-0.8-4.4-2-6-3.5c-1.6-1.5-2.7-3.4-3.5-5.6c-0.7-2.2-1.1-4.6-1.1-7.3   c0-3.4,0.6-6.7,1.7-10c1.2-3.3,2.8-6.2,5-8.8c2.1-2.6,4.7-4.7,7.8-6.2c3.1-1.6,6.5-2.4,10.4-2.4c1.8,0,3.5,0.2,5.1,0.7   c1.6,0.4,3,1.1,4.1,2c1.2,0.9,2.1,2,2.7,3.4c0.7,1.3,1,2.9,1,4.7c0,2.5-0.6,4.7-1.7,6.5c-1.2,1.8-2.7,3.4-4.7,4.7   c-1.9,1.3-4.1,2.3-6.6,3.1c-2.5,0.8-5,1.4-7.7,1.8L198.6,72.1z M203.3,63.6c2.1-0.3,3.8-0.8,5.2-1.3c1.3-0.5,2.4-1.1,3.2-1.7   c0.8-0.6,1.3-1.3,1.6-2c0.3-0.7,0.4-1.3,0.4-2c0-1.1-0.3-1.9-1-2.6c-0.7-0.7-1.6-1-2.8-1c-1.4,0-2.8,0.3-4,1   c-1.2,0.6-2.2,1.5-3.1,2.5c-0.9,1.1-1.7,2.3-2.3,3.6c-0.6,1.4-1.1,2.7-1.5,4.1L203.3,63.6z" fill="#222323"/>
	<path d="M231.5,63.9c0.6-3.5,1.1-6.6,1.4-9.3c0.3-2.7,0.5-4.8,0.5-6.3c0-0.6,0-1.1,0-1.5s0-0.9-0.1-1.4   c1.8-0.3,3.7-0.5,5.5-0.5c0.8,0,1.7,0,2.5,0.1c0.8,0.1,1.7,0.2,2.7,0.4c0.1,0.4,0.2,1,0.3,1.6c0.1,0.6,0.2,1.5,0.2,2.7   c0,0.5,0,1,0,1.5c0,0.5-0.1,1.1-0.2,1.8c0.6-1,1.2-2,2.1-3c0.8-1,1.8-1.8,2.8-2.6c1-0.8,2.2-1.4,3.4-1.9c1.2-0.5,2.6-0.7,4.1-0.7   c1.2,0,2.2,0.1,3,0.4c0.1,0.2,0.1,0.4,0.1,0.7c0,0.2,0,0.5,0,0.7c0,1.6-0.2,3.2-0.6,4.8c-0.4,1.7-0.9,3.1-1.6,4.2   c-0.3-0.1-0.7-0.1-1.1-0.2c-0.4-0.1-0.9-0.1-1.5-0.1c-2.3,0-4.1,0.4-5.6,1.2c-1.5,0.8-2.7,1.9-3.6,3.3c-0.9,1.4-1.7,3.1-2.2,5.1   c-0.6,2-1.1,4.2-1.5,6.7l-3.1,16.7c-2.2,0.3-4.2,0.5-6.1,0.5c-1.9,0-3.9-0.2-5.7-0.5L231.5,63.9z" fill="#222323"/>
	<path d="M269.7,54.4h-6.4c0-1.5,0.1-3,0.3-4.4c0.2-1.4,0.6-3,1.2-4.6h6.4l0.5-2.5c0.3-1.4,0.4-2.7,0.5-4   c0.1-1.2,0.1-2.3,0.1-3.1c1.4-0.9,3.2-1.6,5.4-2c2.2-0.4,4.2-0.6,6-0.6c0.3,0.8,0.4,1.9,0.4,3.2c0,0.9-0.1,1.8-0.2,2.9   c-0.1,1-0.3,2.2-0.5,3.4l-0.5,2.7h10.3c0,1.7-0.1,3.2-0.4,4.6c-0.3,1.4-0.7,2.9-1.2,4.4h-10.3l-2.9,16.4c-0.1,0.8-0.2,1.5-0.3,2.2   c-0.1,0.7-0.1,1.3-0.1,1.9c0,1.4,0.3,2.6,1,3.4c0.7,0.8,1.9,1.2,3.7,1.2c0.9,0,1.8-0.1,2.5-0.2c0.7-0.1,1.4-0.3,2-0.5   c0.7,1.6,1.1,3.7,1.1,6.3c0,0.4,0,0.9,0,1.3c0,0.4,0,0.9-0.1,1.3c-2.4,0.7-5.2,1.1-8.6,1.1c-4.7,0-8.1-0.9-10.4-2.6   c-2.2-1.7-3.4-4.6-3.4-8.7c0-0.8,0.1-1.7,0.2-2.6c0.1-0.9,0.2-1.9,0.4-2.9L269.7,54.4z" fill="#222323"/>
	<path d="M331.9,69.8c-0.6,3.5-1.1,6.6-1.3,9.3c-0.3,2.7-0.4,4.8-0.4,6.3c0,0.6,0,1.1,0,1.5s0,0.9,0.1,1.4   c-1.8,0.3-3.6,0.5-5.4,0.5c-1.6,0-3.3-0.2-5.2-0.5c-0.1-0.4-0.2-1-0.3-1.6c-0.1-0.6-0.2-1.5-0.2-2.7c0-0.5,0-1,0-1.6   c0-0.6,0.1-1.2,0.2-1.9c-1.6,2.6-3.7,4.7-6.2,6.4c-2.5,1.7-5.4,2.6-8.7,2.6c-3.7,0-6.4-1.2-8.2-3.5c-1.8-2.3-2.7-5.4-2.7-9.2   c0-4.2,0.6-8.2,1.9-12.1c1.2-3.9,3.1-7.3,5.6-10.3c2.5-3,5.5-5.4,9.2-7.2c3.7-1.8,7.9-2.7,12.8-2.7c2.4,0,4.7,0.2,6.8,0.5   c2.1,0.3,4.2,0.8,6.2,1.4L331.9,69.8z M323.3,54.3c-0.5-0.1-1-0.2-1.5-0.2c-0.5,0-0.9,0-1.4,0c-2.7,0-4.9,0.7-6.8,2   c-1.9,1.3-3.4,3-4.6,5c-1.2,2-2.1,4.1-2.7,6.4c-0.6,2.3-0.8,4.4-0.8,6.3c0,4.1,1.4,6.2,4.1,6.2c2.7,0,5.1-1.6,7.4-4.9   c2.3-3.2,3.9-7.8,5-13.7L323.3,54.3z" fill="#222323"/>
	<path d="M344.9,43.7c1-5.8,1.5-10.2,1.5-13.2c0-0.6,0-1.1,0-1.5c0-0.4-0.1-0.9-0.1-1.4c0.9-0.2,2-0.3,3.2-0.4   c1.2-0.1,2.3-0.1,3.2-0.1c1.6,0,3.4,0.2,5.3,0.5c0.3,0.8,0.4,1.9,0.4,3.2c0,2.4-0.3,5.4-1,8.9l-2.1,11.6c0.7-0.8,1.4-1.7,2.2-2.5   c0.8-0.8,1.7-1.5,2.8-2.2c1.1-0.7,2.3-1.2,3.7-1.6c1.4-0.4,3-0.6,4.8-0.6c3.9,0,6.9,1.3,8.9,4c2.1,2.7,3.1,6.5,3.1,11.6   c0,3.4-0.5,6.9-1.5,10.4c-1,3.5-2.7,6.7-5,9.5c-2.4,2.8-5.5,5.1-9.4,6.9c-3.9,1.8-8.7,2.7-14.4,2.7c-2.6,0-5-0.2-7.2-0.7   c-2.2-0.4-4.2-1.1-6.2-1.8L344.9,43.7z M350.4,79.1c0.4,0.2,1,0.3,1.7,0.4c0.7,0.1,1.4,0.1,2.1,0.1c2.4,0,4.5-0.6,6.3-1.7   c1.7-1.1,3.2-2.6,4.3-4.3c1.1-1.7,2-3.7,2.5-5.8c0.5-2.1,0.8-4.2,0.8-6.2c0-1.9-0.4-3.6-1.2-5c-0.8-1.4-2.2-2.1-4.1-2.1   c-2.6,0-4.7,1.1-6.6,3.2c-1.8,2.2-3.2,5.7-4,10.7L350.4,79.1z" fill="#222323"/>
	<path d="M395.7,72.1c0.3,2.7,1.2,4.6,2.7,5.9c1.4,1.3,3.5,2,6.3,2c2.2,0,4.2-0.2,5.9-0.7c1.7-0.5,3.5-1.1,5.4-1.9   c0.9,1.1,1.5,2.5,1.8,4c0.3,1.6,0.5,3.3,0.5,5c-0.9,0.4-2,0.8-3.3,1.2c-1.2,0.4-2.5,0.7-3.9,0.9c-1.3,0.2-2.7,0.4-4,0.6   c-1.3,0.1-2.5,0.2-3.6,0.2c-3.4,0-6.3-0.4-8.7-1.2c-2.4-0.8-4.4-2-6-3.5c-1.6-1.5-2.7-3.4-3.5-5.6c-0.7-2.2-1.1-4.6-1.1-7.3   c0-3.4,0.6-6.7,1.7-10c1.2-3.3,2.8-6.2,5-8.8c2.1-2.6,4.7-4.7,7.8-6.2c3.1-1.6,6.5-2.4,10.4-2.4c1.8,0,3.5,0.2,5.1,0.7   c1.6,0.4,3,1.1,4.1,2c1.2,0.9,2.1,2,2.7,3.4c0.7,1.3,1,2.9,1,4.7c0,2.5-0.6,4.7-1.7,6.5c-1.2,1.8-2.7,3.4-4.7,4.7   c-1.9,1.3-4.1,2.3-6.6,3.1c-2.5,0.8-5,1.4-7.7,1.8L395.7,72.1z M400.5,63.6c2.1-0.3,3.8-0.8,5.2-1.3c1.3-0.5,2.4-1.1,3.2-1.7   c0.8-0.6,1.3-1.3,1.6-2c0.3-0.7,0.4-1.3,0.4-2c0-1.1-0.3-1.9-1-2.6c-0.7-0.7-1.6-1-2.8-1c-1.4,0-2.8,0.3-4,1   c-1.2,0.6-2.2,1.5-3.1,2.5c-0.9,1.1-1.7,2.3-2.3,3.6c-0.6,1.4-1.1,2.7-1.5,4.1L400.5,63.6z" fill="#222323"/>
	<path d="M430.8,43.7c0.6-2.9,1-5.5,1.3-7.7c0.2-2.2,0.4-4,0.4-5.5c0-0.6,0-1.1,0-1.5c0-0.4-0.1-0.9-0.1-1.4   c0.9-0.2,2-0.3,3.2-0.4c1.2-0.1,2.3-0.1,3.2-0.1c1.6,0,3.4,0.2,5.3,0.5c0.3,0.8,0.4,1.9,0.4,3.2c0,1.2-0.1,2.5-0.3,4   c-0.2,1.5-0.5,3.1-0.8,4.9l-6.4,33.5c-0.2,0.9-0.2,1.7-0.2,2.3c0,0.9,0.1,1.6,0.4,2.1s0.6,0.9,1,1.2c0.4,0.3,0.8,0.5,1.3,0.5   c0.5,0.1,1,0.1,1.5,0.1c0.2,0,0.6,0,1.2-0.1c0.6-0.1,1.2-0.2,1.7-0.4c0.3,0.9,0.5,2,0.7,3.1c0.2,1.1,0.3,2.2,0.3,3.4   c0,0.4,0,0.9,0,1.2c0,0.4-0.1,0.8-0.1,1.2c-0.8,0.3-1.9,0.6-3.2,0.8c-1.3,0.2-2.8,0.3-4.4,0.3c-3.8,0-6.7-0.9-8.9-2.8   c-2.2-1.9-3.2-4.8-3.2-8.8c0-0.8,0.1-1.6,0.2-2.5c0.1-0.9,0.2-1.8,0.4-2.7L430.8,43.7z" fill="#222323"/>
	<path d="M463.5,89.4c-5.7,0-9.9-1.5-12.6-4.5c-2.7-3-4-7.1-4-12.3c0-3.3,0.5-6.7,1.5-10c1-3.4,2.5-6.4,4.5-9.1   c2-2.7,4.5-4.9,7.5-6.6c3-1.7,6.6-2.5,10.6-2.5c5.8,0,10,1.5,12.7,4.6c2.7,3.1,4,7.2,4,12.4c0,3.4-0.5,6.8-1.5,10.2   c-1,3.3-2.5,6.3-4.5,9c-2,2.7-4.5,4.8-7.6,6.4C471.2,88.6,467.6,89.4,463.5,89.4z M464.6,80.4c2.1,0,3.9-0.7,5.3-2   c1.4-1.3,2.6-3,3.5-5c0.9-2,1.6-4,2-6.2c0.4-2.2,0.6-4.2,0.6-5.9c0-5.1-2.1-7.7-6.2-7.7c-2.1,0-3.9,0.7-5.2,2.1   c-1.4,1.4-2.5,3.1-3.4,5.1c-0.9,2-1.5,4.1-1.9,6.3c-0.4,2.2-0.5,4.2-0.5,5.9C458.7,77.9,460.7,80.4,464.6,80.4z" fill="#222323"/>
</g>
<g>
	<polygon fill="#D15197" points="16.6,38.9 31,61.4 31,61.4 47.1,42.1 32.1,20.3  "/>
	<path d="M12.6,32.7C13.5,31.6,21,22.6,28,14.4L18,0h-7.2L0,13L12.6,32.7z" fill="#D15197"/>
	<path d="M34.9,67.5l16,25c0.9-1.1,7.8-9.3,17-20.3L51.2,48L34.9,67.5z" fill="#D15197"/>
	<polygon fill="#D15197" points="72.1,78.1 54.9,98.7 54.9,98.6 66.4,116.5 81.9,92.2  "/>
	<path d="M69.5,26.1L51.3,48l0,0L68,72.2c0,0,0,0,0,0c5.5-6.6,11.9-14.2,18.3-21.9L69.5,26.1z" fill="#5D2F87"/>
	<polygon fill="#5D2F87" points="90.4,56.2 72.1,78.1 72.1,78.1 81.9,92.2 81.9,92.2 97.9,67.1  "/>
	<polygon fill="#5D2F87" points="51.4,0 49,0 32.1,20.3 32.1,20.3 47.1,42.1 47.2,42 65.4,20.2  "/>
	<path d="M18.1,0L18.1,0L28,14.4c0,0,0,0,0-0.1C34.2,6.9,40,0,40,0H18.1z" fill="#5D2F87"/>
	<polygon fill="#25B6EA" points="51.5,0 51.4,0 65.4,20.2 65.4,20.2 82.3,0  "/>
	<path d="M88.5,3.4L69.5,26.1l0,0l16.7,24.1c0,0,0,0,0,0c6.5-7.8,13.1-15.7,19-22.7L88.5,3.4z" fill="#25B6EA"/>
	<polygon fill="#25B6EA" points="109.4,33.4 90.4,56.2 90.4,56.2 97.9,67.1 97.9,67.1 114.6,41  "/>
	<path d="M121.8,0H91.3l-2.7,3.3l-0.1,0.1l16.8,24.1c0,0,0.1-0.1,0.1-0.1C116.5,14,125,3.9,125,3.9L121.8,0z" fill="#93C149"/>
	<polygon fill="#93C149" points="129.5,9.3 109.5,33.3 109.4,33.4 114.6,41 114.7,40.9 132.5,13  "/>
</g>
</svg></svg></g></g></svg>